<svg xmlns="http://www.w3.org/2000/svg" viewBox="0 0 2775.71 2061.29"><defs><style>.cls-1{fill:#010101;}.cls-2{fill:#cbd82b;}.cls-3{fill:#fff;}</style></defs><title>Asset 2</title><g id="Layer_2" data-name="Layer 2"><g id="Layer_1-2" data-name="Layer 1"><g id="_Group_" data-name="&lt;Group&gt;"><path id="_Path_" data-name="&lt;Path&gt;" class="cls-1" d="M420.56,1709.49c-55-18.87-100-81.89-100-140V500.05c0-58.16,44.94-121.39,99.87-140.5L1353.85,34.67c54.93-19.12,144.68-18.77,199.46.78l907.46,323.79c54.77,19.54,99.65,83.12,99.72,141.27l1.38,1068.76c.08,58.15-44.83,121.28-99.8,140.28l-916.75,316.86c-55,19-145,19.11-200,.24Z"/><path id="_Compound_Path_" data-name="&lt;Compound Path&gt;" class="cls-2" d="M1444.88,2061.29c-39.9,0-77.62-5.39-106.19-15.2l-924.8-317.15C351.08,1707.39,300,1635.85,300,1569.45V500.05c0-66.37,51-138.11,113.67-159.91L1347.1,15.26C1375.35,5.42,1412.62,0,1452,0c40.68,0,79.1,5.72,108.18,16.09l907.46,323.78c62.42,22.29,113.28,94.33,113.37,160.61l1.38,1068.76c.09,66.4-50.89,138-113.64,159.74L1552,2045.85C1523.22,2055.81,1485.17,2061.29,1444.88,2061.29ZM1452,41.12c-34.43,0-67.75,4.72-91.43,13L427.17,379c-46.65,16.24-86.07,71.68-86.07,121.09v1069.4c0,49.36,39.45,104.58,86.14,120.6L1352,2007.2c24,8.25,57.88,13,92.85,13,35.32,0,69.48-4.81,93.73-13.18l916.75-316.87c46.66-16.12,86-71.46,86-120.82l-1.38-1068.76c-.07-49.47-39.49-105.31-86.09-121.94L1546.4,54.82C1522,46.11,1487.61,41.12,1452,41.12Z"/><path id="_Path_2" data-name="&lt;Path&gt;" class="cls-1" d="M205.29,1950.75a116.88,116.88,0,0,1-104.09-170c9.71-19,243.5-466.1,737-518.72,455.91-48.6,959.5-85.33,1169.84-97.06,252.14-14.05,436-83.7,562.12-212.93a116.88,116.88,0,0,1,193.14,40.74c6.67,17.87,36.57,112.51-30.33,220.88-89.19,144.48-298.3,232.57-639.3,269.33-90.68,9.77-179.41,18.52-265.22,27-474.75,46.8-923.18,91-995.86,258.48-19.16,44.16-61,71.17-105.82,71.17a113.53,113.53,0,0,1-41.36-7.86c-5.31-1.71-46.25-14.27-106.76-14.27-106.58,0-208.18,36.67-302,109A116.68,116.68,0,0,1,205.29,1950.75Z"/><g id="_Group_2" data-name="&lt;Group&gt;"><path id="_Compound_Path_2" data-name="&lt;Compound Path&gt;" class="cls-3" d="M941.81,1714.3q-7.34-13.47-3.13-27a34.12,34.12,0,0,1,17-20.43,34.53,34.53,0,0,1,26.22-3.25q13.67,3.58,21.12,17.3t3.13,27.15a34.52,34.52,0,0,1-17,20.31q-13,7.07-26.52,3.21T941.81,1714.3Zm12.08-6.61c3.13,5.76,7.48,9.48,13.07,11.21a20.26,20.26,0,0,0,16.14-1.65,20,20,0,0,0,10.17-12.77q2.29-8.45-2.34-17t-13.09-11.14a20.08,20.08,0,0,0-16.13,1.59,19.76,19.76,0,0,0-10.21,12.9A22.61,22.61,0,0,0,953.89,1707.69Z"/><path id="_Compound_Path_3" data-name="&lt;Compound Path&gt;" class="cls-3" d="M1021.92,1636.26l3.13,7.38q8-13.25,17.5-17.28a17.64,17.64,0,0,1,11-1.37,14.1,14.1,0,0,1,8,4.7c1.94,2.37,4,6.17,6.25,11.37l12.66,29.73,10.27-4.38,4.54,10.66-22.25,9.47-17-39.87c-2-4.63-3.94-7.34-5.93-8.16a7.46,7.46,0,0,0-6,.06q-8,3.39-14.65,15.4l13.9,32.63,10.52-4.49,4.53,10.66-33.19,14.14-4.54-10.65,10.71-4.56L1014.48,1652l-10.71,4.56-4.53-10.64Z"/><path id="_Compound_Path_4" data-name="&lt;Compound Path&gt;" class="cls-3" d="M1104.32,1662.56l-23.25-68.26-11.15,3.79-3.72-10.95,23.46-8,27,79.22,9.59-3.27,3.73,11-33,11.26-3.74-11Z"/><path id="_Compound_Path_5" data-name="&lt;Compound Path&gt;" class="cls-3" d="M1142.93,1650.17l-11.81-41.48-9.88,2.8-3.16-11.13,22.39-6.37,15,52.62,9.88-2.81,3.16,11.13-32.26,9.19-3.18-11.13ZM1120,1576.38a7.69,7.69,0,0,1,.63-5.87,7.52,7.52,0,0,1,4.8-3.78,7.67,7.67,0,0,1,6,.66,7.42,7.42,0,0,1,3.76,4.69,7.5,7.5,0,0,1-.72,6,7.87,7.87,0,0,1-14.43-1.7Z"/><path id="_Compound_Path_6" data-name="&lt;Compound Path&gt;" class="cls-3" d="M1184.07,1583.19l1.6,7.85q10.45-11.34,20.6-13.42a17.67,17.67,0,0,1,11,.85,14.11,14.11,0,0,1,6.9,6.22q2.14,4.07,3.85,12.37l6.46,31.68,10.93-2.24,2.32,11.35-23.68,4.83-8.67-42.47c-1-4.93-2.39-8-4.18-9.19a7.53,7.53,0,0,0-5.89-1.13q-8.46,1.72-17.43,12.16l7.08,34.76,11.21-2.3,2.31,11.34-35.36,7.22-2.31-11.33,11.41-2.33-8.63-42.28-11.4,2.33-2.32-11.33Z"/><path id="_Compound_Path_7" data-name="&lt;Compound Path&gt;" class="cls-3" d="M1317.57,1600.09l-55.35,6.57a24.22,24.22,0,0,0,9,13.91q6.66,4.9,16,3.81a25.23,25.23,0,0,0,20.13-13.42l12,3.68a34.52,34.52,0,0,1-13,14.53,43.37,43.37,0,0,1-18.14,6.4,37.94,37.94,0,0,1-26.92-6.35q-11.83-8.15-13.73-24.12-1.8-15.18,7.48-26.21t22.8-12.64q13.28-1.56,25.17,6.71T1317.57,1600.09Zm-14.44-7.8a23.65,23.65,0,0,0-8.7-11.7,20.11,20.11,0,0,0-15-3.9,19,19,0,0,0-12.65,6.65,21.67,21.67,0,0,0-5.19,13.88Z"/><path id="_Compound_Path_8" data-name="&lt;Compound Path&gt;" class="cls-3" d="M1375,1611.83l-4.82-42.87-11,1.23-1.29-11.5,23.89-2.68.93,8.3q10.63-10.63,21.84-11.9t16.71,8.53q11.71-11.73,22.8-13a18.41,18.41,0,0,1,10.83,1.63,14,14,0,0,1,6.35,6.54q1.9,4.15,2.87,12.58l3.66,32.67,11.5-1.3,1.29,11.52-24.42,2.75-4.7-41.86a45.15,45.15,0,0,0-1.42-8,6.52,6.52,0,0,0-3-3.58,8.22,8.22,0,0,0-5.18-1q-8.31.93-17.89,10.62l4,35.32,11.29-1.28,1.3,11.51-24.22,2.72-4.85-43.07q-.73-6.46-2.92-9.15t-6.67-2.18q-7.33.84-17.91,10.63l4,35.32,11.57-1.31,1.29,11.5-36.26,4.08-1.29-11.49Z"/><path id="_Compound_Path_9" data-name="&lt;Compound Path&gt;" class="cls-3" d="M1552.39,1592.25l1.24,11.51-22.59,2.45-.88-8q-8.4,10.14-20,11.39a22.91,22.91,0,0,1-16.26-4.15,20.23,20.23,0,0,1-2.87-30.26,25.23,25.23,0,0,1,16.33-7.91,32.57,32.57,0,0,1,18.51,3.64l-.71-6.54a24.35,24.35,0,0,0-1.79-7.65,9.94,9.94,0,0,0-5-4.42,17.23,17.23,0,0,0-9.39-1.19q-9.73,1.05-13.25,9.29l-12.74-1.93q6.56-16.26,26.78-18.45a36.75,36.75,0,0,1,13,.61,18.86,18.86,0,0,1,8.63,4.29,17.07,17.07,0,0,1,4.31,6.46A53.15,53.15,0,0,1,1538,1563l3.31,30.51Zm-25.31-10.42q-9.07-5.61-17.65-4.69a13.32,13.32,0,0,0-8.65,4.1,10.33,10.33,0,0,0-2.74,8.5,10.57,10.57,0,0,0,4,7.41,11.79,11.79,0,0,0,9,2.21q9.4-1,16.92-9.83Z"/><path id="_Compound_Path_10" data-name="&lt;Compound Path&gt;" class="cls-3" d="M1570.47,1590.34l-4.55-42.91-13.28,1.4-1.22-11.49,23.63-2.52,1.58,14.86a26.09,26.09,0,0,1,5-10.24,19.42,19.42,0,0,1,7.67-5.92A45.83,45.83,0,0,1,1601,1531l3.4-.36,1.38,13.08-2.57.27q-9.9,1-14.55,3.54a13.33,13.33,0,0,0-6.45,8q-1.82,5.46-.37,18.94l1.54,14.51,14.36-1.54L1599,1599l-40.58,4.29-1.22-11.5Z"/><path id="_Compound_Path_11" data-name="&lt;Compound Path&gt;" class="cls-3" d="M1624.7,1584.59l-7.43-71.72-11.85,1.24-1.19-11.51L1629,1500l6.13,59.19,22.62-22.23-11,1.14-1.11-10.7,36.43-3.78,1.11,10.71-10.07,1-22.6,23.13,25.62,20.75,11.58-1.19,1.2,11.51-17,1.74-36.61-29.72,2.25,21.65,11.37-1.18,1.19,11.52-36.16,3.75-1.2-11.52Z"/><path id="_Compound_Path_12" data-name="&lt;Compound Path&gt;" class="cls-3" d="M1758.17,1552.57l-55.46,5.6a24.14,24.14,0,0,0,8.72,14c4.38,3.38,9.68,4.74,15.9,4.12a25.28,25.28,0,0,0,20.36-13.07l12,3.88a34.73,34.73,0,0,1-13.22,14.31,43.78,43.78,0,0,1-18.25,6.08,37.92,37.92,0,0,1-26.8-6.83c-7.79-5.58-12.22-13.68-13.3-24.37q-1.55-15.18,7.93-26t23-12.22q13.29-1.36,25.06,7.12T1758.17,1552.57Zm-14.3-8a23.74,23.74,0,0,0-8.49-11.84,20.11,20.11,0,0,0-14.94-4.17,19.06,19.06,0,0,0-12.78,6.42,21.83,21.83,0,0,0-5.42,13.8Z"/><path id="_Compound_Path_13" data-name="&lt;Compound Path&gt;" class="cls-3" d="M1765.23,1526.92l-1.15-11.52,8.59-.85-1-10.16,11.77-13.13,2.18,22,12.2-1.21,1.14,11.51-12.2,1.2,3.17,32c.5,5.15,1.11,8.28,1.8,9.43s2.16,1.62,4.43,1.39a19.4,19.4,0,0,0,7-2.07l1.16,11.79a29.93,29.93,0,0,1-9.77,2.76,16.34,16.34,0,0,1-9.87-1.67,11.23,11.23,0,0,1-5.29-6.14c-.89-2.55-1.66-7.07-2.3-13.52l-3.24-32.71Z"/><path id="_Compound_Path_14" data-name="&lt;Compound Path&gt;" class="cls-3" d="M1822.08,1564.64l-4.19-42.94-10.23,1-1.13-11.51,23.18-2.27,5.32,54.45,10.23-1,1.12,11.51-33.39,3.27-1.13-11.52Zm-9.35-76.7a7.76,7.76,0,0,1,7.07-8.53,7.78,7.78,0,0,1,5.75,1.71,7.46,7.46,0,0,1,2.86,5.29,7.9,7.9,0,0,1-7.08,8.62,7.91,7.91,0,0,1-8.6-7.09Z"/><path id="_Compound_Path_15" data-name="&lt;Compound Path&gt;" class="cls-3" d="M1871.18,1504.91l.76,8c7.75-6.81,15-10.52,21.91-11.19a17.87,17.87,0,0,1,10.89,2,14.06,14.06,0,0,1,6.2,6.9q1.71,4.28,2.53,12.73l3.08,32.18,11.1-1.07,1.11,11.52-24.06,2.3-4.14-43.14q-.72-7.5-3.18-9.56a7.39,7.39,0,0,0-5.74-1.75q-8.6.81-18.63,10.23l3.38,35.31,11.38-1.1,1.11,11.52-35.92,3.44-1.11-11.51,11.59-1.1-4.11-43-11.59,1.11-1.1-11.52Z"/><path id="_Compound_Path_16" data-name="&lt;Compound Path&gt;" class="cls-3" d="M2008.65,1492l1.07,11.52-11.86,1.1,4.58,49.17a77.85,77.85,0,0,1,.36,14.84,24.46,24.46,0,0,1-4,10.29c-2.3,3.57-6,6.75-11,9.5a43.6,43.6,0,0,1-17.21,5.06,41.88,41.88,0,0,1-26.86-6.37l7.58-10.19a29.93,29.93,0,0,0,19.3,4.92,25,25,0,0,0,10.17-3.11,18,18,0,0,0,6.63-5.87,16,16,0,0,0,2.49-6.12,43.9,43.9,0,0,0-.18-9.37l-.56-6a30.31,30.31,0,0,1-8.93,8.25,29.93,29.93,0,0,1-14,4.81q-14.18,1.32-24-7.66t-11.18-23.3q-1.45-15.68,7.5-26.25t21.9-11.78q13.08-1.22,24.29,8.27l-.87-9.41Zm-63.88,39.92q.93,10,7.35,15.82a19.39,19.39,0,0,0,15.5,5,21,21,0,0,0,14.67-7.79c3.87-4.65,5.51-10.32,4.88-17s-3.27-12-7.93-15.73a21.1,21.1,0,0,0-29.67,2.69Q1943.8,1521.52,1944.77,1531.88Z"/></g><path id="_Compound_Path_17" data-name="&lt;Compound Path&gt;" class="cls-1" d="M407.8,1661.54c-236.84,0-396.62-121.84-407-310.4-8.37-151,53.63-298.27,179.28-425.87,80.27-81.52,184.72-150.95,296-198-1.05-14.44-1.78-30-2-46.62C469.59,400,680.81,230.37,717.72,202.91c102-84.38,237.4-135.21,381.88-143.21,9-.49,17.79-.73,26.38-.73,136.37,0,278,72.41,286.94,234.18,6.95,125.44-53.94,241.69-162.9,311a114.42,114.42,0,0,1-14.49,7.84l55.54,22.82c55.32-29.81,115.16-39.42,169.46-44.25,7.51-.67,15.29-1,23-1a232.92,232.92,0,0,1,87.92,16.85c54.58-26.56,113.81-35.83,168.36-40.67,8.17-.74,16.52-1.11,24.68-1.11,50,0,94.24,14.2,129.45,39.53L2035,193.18a116.91,116.91,0,0,1,99.92-78.44L2351.23,95c3.56-.31,7.11-.49,10.64-.49a116.89,116.89,0,0,1,110.57,154.71l-88.89,259.92q3.39-.06,6.7-.06c91.12,0,187.44,49.34,197.24,159.59,3.24,36.45-3.2,72.46-18.46,106.9a116.94,116.94,0,0,1,68.73,35.23l45.7,48.06a116.87,116.87,0,0,1,25.22,120.3c-63.8,176.37-315.57,326.34-498,342.59-6.47.57-13,.86-19.26.86-33.43,0-64.19-7.91-90.66-22.22a116.84,116.84,0,0,1-71.28,33l-218.9,20c-3.56.31-7.11.48-10.64.48a116.67,116.67,0,0,1-33.72-5c-33.83,11.24-66.44,18.3-97.57,21-7.89.72-16,1.08-24,1.08-38.75,0-74.25-9-104.48-25.33a116.89,116.89,0,0,1-76.09,38l-217.62,19.86c-3.55.32-7.1.49-10.63.49a116.77,116.77,0,0,1-21.68-2,116.83,116.83,0,0,1-29.31,6.55l-218.9,20c-3.56.32-7.11.48-10.63.48-3.15,0-6.29-.13-9.41-.37l-.55.58C815,1567.8,638.9,1649.9,449.4,1660.39,435.43,1661.17,421.44,1661.54,407.8,1661.54Zm171.57-544.46c-73.56,51.65-113.82,114.68-111.91,179.54,20.86-4.18,51.94-16.77,79.09-57.27,24.15-36,35.35-80.76,33.93-106.35C580.18,1127.58,579.85,1122.37,579.37,1117.08ZM1012.9,634.52c18.37.93,36.37,2.65,53.87,5.15a117,117,0,0,1,25.41-25.73A173.38,173.38,0,0,1,1016,552.29c0,.55-.1,1.1-.13,1.65a117,117,0,0,1-1.89,13.83c-3,15.27-3.85,34.15-2.55,57.69A53.86,53.86,0,0,0,1012.9,634.52Z"/><g id="_Group_3" data-name="&lt;Group&gt;"><path id="_Compound_Path_18" data-name="&lt;Compound Path&gt;" class="cls-2" d="M419.48,1579.13c-181.43,0-294.1-78.67-301.4-210.44-6.61-119.4,43.38-237.84,144.55-342.55,89.23-92.33,210-165,341.07-205.43a651.89,651.89,0,0,1-12.21-118.33C587.64,457.07,793,310.8,795.1,309.35c84.1-70.72,198.78-113.79,322.05-120.61,7-.38,13.79-.58,20.5-.58,108.88,0,176.66,50.18,181.32,134.23,4.87,88-36.7,166.65-114,215.83l-2.2,1.09a93,93,0,0,1-31.18,5.53c-26.22,0-47-12-60.21-34.62-24-41.27,8.33-76.25,19-87.74l1.22-1.15c17.19-14,27.45-30.18,26.78-42.21-1.19-21.46-17.57-35.11-41.33-33.63-49.3,2.73-101.35,38.22-139.25,94.94l-1,1.27c-5,5.71-49.41,57.79-54.71,127.63l-.2,1.41c-4.74,24-6.18,51.47-4.37,83.94,1.46,26.54,12.38,60.75,35.24,110.22a438.58,438.58,0,0,1,53.44-1.81c50,1.26,97.8,9.83,136.33,24.31l24.17-70.76,148.63,61.07c37.8-34.28,86.78-51.34,166.3-58.4,49.88-4.39,83.73,15.25,101.27,37.66,47.58-45,113.39-56.77,178-62.51,5.27-.47,10.39-.69,15.34-.69,62.6,0,103.29,37.3,108.85,99.77,4.73,53.13-24.71,136-53.18,216.2-8.52,24-16.57,46.65-23.33,67.57-4.24,10.87-6.23,22.27-5.9,25.94.48,5.39.9,6.79,8.21,6.79,1.25,0,2.59-.06,4-.19,11-1,25.53-6.44,42.28-15.84l292.22-850.38,240.24-21.38-159.8,467.28c37.45-28.8,85.67-44.41,152.31-50.34,66-5.87,107.77,17.45,111.74,62.23,5.5,61.72-48.17,127.76-142.12,177.42,26.41,9,42.64,28.74,45.09,56.36,1.49,16.65-6.34,42.46-13.92,67.41-5.58,18.39-11.91,39.24-11.18,47.4.84,9.38,2.82,9.38,8.73,9.38,1.15,0,2.38-.05,3.68-.17,52.66-4.68,150.67-95.22,169.86-147.06l6.63-17.89,63,66.25-2.54,6.94c-45,123.08-247.14,258-408.1,272.28-61,5.47-86-38-89.3-74.71-3-33.52,10-72.84,22.63-110.88,10.17-30.74,19.78-59.79,18.11-78.63a13.89,13.89,0,0,0-.56-3.12c-.27.07-1.33-.12-3.33-.12-1.24,0-2.59.08-4,.2-12.22,1.08-28.17,6.89-34.85,28.42l-83,250.4-243,21.61,8.79-25.59c-48.19,23.15-93.88,37.11-133.44,40.63-5,.44-9.87.66-14.59.66-57.28,0-95.8-33-100.52-86.15-3.94-44.22,33.55-144,69.8-240.41,16.64-44.27,32.36-86.08,43.06-119.84,3.55-15.12,3.71-21.39,3.32-25.78a7.81,7.81,0,0,0-.64-2.94,22.37,22.37,0,0,0-3.46-.35c-.8,0-1.65,0-2.56.11-18.66,1.67-31.47,11.68-36,28.18L1473.12,1301.6l-241.59,21.5L1390,861c1.36-7.07,3.11-16.29,2.81-19.72a8.3,8.3,0,0,0-.6-2.76,13.6,13.6,0,0,0-4.17-.43c-1,0-2.06.05-3.18.14-16.53,1.48-29,11.94-33.46,27.95l-157.52,460.3L951,1348.05l152.19-445.71c-24.71-11.91-46.09-16.77-75.36-17.51l-3.63,0c-5.55,0-11.34.3-17.31.9l9.4,21.9c7.45,31.88,14.3,63.28,16.16,96.88,7,126.19-50,266.61-152.55,375.64-111.61,118.71-262.44,189-424.7,198C443.17,1578.79,431.14,1579.13,419.48,1579.13ZM1137.65,212q-9.4,0-19.18.54c-118.17,6.53-227.87,47.62-308.9,115.71-2.81,2-197.92,141.36-194.27,373.77a633,633,0,0,0,13.87,124.58l2.22,10.74-10.52,3.09c-242.41,71.28-492.68,280.2-479,527,6.52,117.68,110.3,187.94,277.62,187.94,11.22,0,22.81-.33,34.44-1C610.06,1545.7,755.19,1478,862.6,1363.8c98.12-104.37,152.75-238.21,146.11-358-1.73-31.31-8.21-61.25-15.32-91.69L972.7,867l14.95-2.63a213,213,0,0,1,36.59-3.37l4.23,0c36.39.91,63,7.89,95,24.87l9,4.76-147,430.42,190.94-17,152.3-445c6.87-24.91,27.66-42.28,54.08-44.64,1.89-.17,3.65-.25,5.3-.25,16.68,0,27.07,9.08,28.48,24.89.61,6.92-1.28,16.75-3.3,27.16l-.42,1.61L1266,1296.13l189.61-16.87,151-444.83c7-25.33,28.26-42.34,56.68-44.89,1.65-.15,3.21-.22,4.67-.22,16.27,0,26.41,9.11,27.81,25,.8,8.85-.35,18.45-4.1,34.24-11.12,35.2-27,77.3-43.7,121.87-33.67,89.57-71.83,191.1-68.38,229.91,4,44.63,37.07,68.5,89.29,63.89,43.55-3.87,95.67-21.65,150.73-51.39l26.83-14.5L1830,1246l190.83-17,78.05-235.34c8.08-26,28.3-42.45,55.41-44.85q3.33-.3,6.16-.3c16.6,0,26.15,8.62,27.6,24.93,2.12,23.77-8.25,55.08-19.22,88.23-11.82,35.74-24.06,72.68-21.51,101.29,1.12,12.54,8.43,53.45,55.7,53.45q3.75,0,7.77-.34c160.09-14.26,342-147.38,385.17-249.95l-27.53-28.94c-32.72,59.37-125.57,140.75-182.31,145.8-2,.18-4,.27-5.78.27-13.54,0-30.16-5.39-32.45-31.08-1.14-12.77,5-33,12.12-56.44,6.59-21.72,14.06-46.33,13-58.37-3.12-35-37.74-40.23-58.1-40.23l-3.62,0-61,1.72,55.87-24.53c104.69-45.94,169-113,163.87-170.8-3.05-34.26-38.73-41.45-68.13-41.45-5.65,0-11.63.27-17.79.82-83.81,7.47-135.5,30.91-172.83,78.39l-43.27,55,187.09-547.11L2166.79,266,1876.7,1110.16l-3.82,2.23c-21.65,12.67-40.48,19.79-56,21.17q-3.23.29-6.11.29c-19,0-30.3-10.12-31.92-28.48-.89-9.89,3.11-25.63,7.2-36.06,6.62-20.57,14.72-43.38,23.3-67.53,26.33-74.15,56.17-158.18,51.9-206.13-4.85-54.62-40.23-82.58-98.36-77.47-64.75,5.75-130.54,17.7-173.11,65.79L1578,797.32l-7.81-16c-9.5-19.52-38.8-42.53-86.49-38.29-77.6,6.89-123.23,23.44-157.5,57.1l-5.6,5.51L1181,748.27l-24.21,70.89L1145,814.07c-37.62-16.21-87.14-25.86-139.44-27.18a413.41,413.41,0,0,0-58.65,2.57l-8.49,1-3.65-7.73c-27-57.3-39.32-95.19-41.06-126.71-1.9-34.17-.37-63.35,4.66-89.19,5.88-74.21,49.81-128.57,60-140.26,42.6-63.46,99.9-101.66,157.28-104.84,37.12-2.06,64.51,21.58,66.43,56.1,1.1,19.9-11.59,42.25-34.84,61.42-15.11,16.48-28.5,36.33-15.3,59,8.79,15.12,22.12,22.78,39.62,22.78a69.8,69.8,0,0,0,21.7-3.61c69.16-44.46,106.29-115,101.93-193.72C1291.26,252.7,1233.84,212,1137.65,212ZM461.53,1451.8c-60.81,0-107.76-50.78-111.64-120.75C341.39,1177.5,457.3,1038.35,660,958.82l11.18-4.38,4.29,11.21c35.8,93.53,43.41,133.71,46.18,183.58,3.19,57.59-18.67,130.47-55.69,185.68-33.6,50.1-95.25,111-198.18,116.72C465.64,1451.75,463.57,1451.8,461.53,1451.8Zm196-466.33c-185.69,76.19-291.56,204.26-283.81,344.27,3.26,58.85,42.51,101.19,92.74,98.12,93.14-5.16,149.14-60.6,179.72-106.21,41.7-62.19,53.92-131,51.69-171.11C695.26,1104.28,688.66,1068.45,657.48,985.47Zm1462.81-87.36,14-22.65c42.58-68.71,96.13-115.43,136.42-119,1.66-.15,3.25-.22,4.75-.22,16.79,0,27.63,9.3,29,24.88.28,3-.44,5.52-1.27,8.45-.28,1-.61,2.15-.92,3.44-15.9,60.36-105.4,91.53-155.79,100.47ZM2275.49,780c-.84,0-1.72,0-2.65.12-23.77,2.13-62.94,28.77-102,83.32,50.91-14.34,99.38-42.33,108.34-76.33.34-1.41.74-2.84,1.09-4.07.11-.4.23-.77.31-1.11C2280.35,780.5,2279.5,780,2275.49,780Z"/></g><g id="_Group_4" data-name="&lt;Group&gt;"><path id="_Compound_Path_19" data-name="&lt;Compound Path&gt;" class="cls-2" d="M170.56,1910.75l24.12-47.22c2.12-4.14,217-415.45,654.64-462.09,454.06-48.4,955.28-85,1164.55-96.63,279.58-15.59,486.11-95.53,631.41-244.43l13.11-13.43,6.56,17.59c.9,2.4,21.5,59.67-21.31,129-87.24,141.32-353.35,197.69-561.22,220.1-90.2,9.72-178.68,18.44-264.24,26.88-550.12,54.23-984.63,97.07-1081.89,321.16L731.82,1772l-10.57-3.88c-.56-.21-56.93-20.58-142.61-20.58-89.59,0-225.82,22.69-366.09,130.83Zm2475.92-818c-148.62,143.25-355.43,220.46-631.28,235.83-209,11.66-709.73,48.18-1163.35,96.53C516.13,1460.9,315.21,1718,244.63,1826.41c128.78-83.9,250.72-102.68,334-102.68,69.16,0,119.49,12.43,140.33,18.65,110.69-228.3,546.8-271.31,1096.87-325.54,85.51-8.43,173.94-17.15,264-26.86,366-39.44,497.33-135,543-208.13C2646,1144.89,2648.22,1112.46,2646.48,1092.75Z"/></g><path id="_Compound_Path_20" data-name="&lt;Compound Path&gt;" class="cls-3" d="M2653.8,1033.62c-173.86,178.15-410.24,235.23-639.26,248s-727.69,50.08-1163.95,96.59c-18.92,2-37.25,4.94-55.31,8.26,133-112,210-271.63,201.94-416.42-1.86-33.59-8.91-65.06-15.87-94.82l-15-34.23a196.17,196.17,0,0,1,38.47-3.14c33.62.85,58.24,6.76,89.67,23.48l-14.27,41.78L944.83,1299.48l216.89-19.28,154.81-452.29c5.93-21.48,23.09-34.79,43.87-36.64,14.27-1.27,19.93,3.47,20.86,13.85.46,5.2-1.33,14.53-3.12,23.84l-152.79,445.57,215.6-19.18,153.5-452.18c6-21.46,23.09-34.77,46.48-36.85,13-1.16,18.64,3.57,19.56,14,.58,6.49,0,14.4-3.83,30.44-33.72,106.43-117.79,294.54-112.36,355.6,4.51,50.65,42.46,80,102.2,74.68,47.34-4.2,102.27-24.09,155.34-52.77l-12.41,36.12,216.89-19.3,80.51-242.77c7.12-22.9,24.38-34.89,45.16-36.74,14.29-1.27,19.81,2.16,20.85,13.84,4,45.46-45.93,131.06-40.73,189.51,2.89,32.47,24.42,68.52,76.39,63.91,162.34-14.45,356.91-152.2,398-264.51l-44.77-47.07c-20,54.14-121.53,149.57-180,154.77-16.86,1.49-23.93-4.42-25.32-20-2-22.09,27.54-87.54,25.11-114.82-3-33.76-30.81-52.23-73.91-51,119.69-52.54,176.14-124.31,170.94-182.77-3.58-40.27-43-56.39-98.83-51.42-90.9,8.09-143.5,35-181.13,82.88l170.36-498.19-214.28,19.06L1843.48,1067c-18.8,11-36.61,18.3-51,19.59-15.58,1.38-23.85-3.11-25.12-17.4-.57-6.48,2.18-19.83,6.44-30.67,28.75-89,81.87-212.81,76-279-5.31-59.74-45-94.18-111.27-88.28-71.43,6.35-137,20-181,69.77-12.82-26.34-47.58-49.44-98.26-44.93-87,7.73-131.07,27.36-164.78,60.47l-144-59.18-24.14,70.68c-40-17.22-91.52-26.82-143.84-28.14a428.06,428.06,0,0,0-60.33,2.64c-22.4-47.47-38.07-88.57-39.94-122.28-1.63-29.39-1-58.9,4.59-86.92,5.53-73,50.52-126.53,57.66-134.61,39.27-58.79,93.79-97.2,148.49-100.22,31.8-1.76,52.41,18.38,53.87,44.86.94,17-12.1,36.57-31.14,52.1-10.68,11.54-36.81,40.3-17.4,73.67,24.44,42,71.07,26.13,76.9,23.94C1241.08,451.17,1288.79,380,1283.69,288c-4.79-86.54-81.51-128.37-189.27-122.41C983.15,171.7,868.74,208.24,778.53,284c0,0-202.33,141.26-198.52,383.07a643.72,643.72,0,0,0,14.11,126.81C334.35,870.3,92.9,1085.66,106.59,1333c7.82,141.31,142.66,208.28,324.6,198.2,15.12-.83,29.95-2.39,44.64-4.26-182,133.83-270.55,307-270.55,307,266.89-205.75,520.09-112,520.09-112C841,1455.54,1411.06,1439,2081.14,1366.73S2653.8,1033.62,2653.8,1033.62ZM2248.41,733.21q19.47-1.73,20.85,13.86c.12,1.28-.93,4-1.91,8-12.71,48.25-87,81-146.3,91.56C2165.7,774.6,2215.94,736.11,2248.41,733.21Zm-1910,562.1c-9.58-173.11,139.52-296.52,302.52-360.49,35.2,91.95,42.68,130.53,45.41,180,5.48,98.93-67.77,280.17-242.64,289.86C383.62,1408,341.81,1357.13,338.39,1295.31Z"/></g></g></g></svg>